<mxfile host="app.diagrams.net" modified="2024-04-22T11:04:18.251Z" agent="Mozilla/5.0 (Windows NT 10.0; Win64; x64) AppleWebKit/537.36 (KHTML, like Gecko) Chrome/124.0.0.0 Safari/537.36 Edg/124.0.0.0" version="24.2.7" etag="64QCALg_qx5utkcuhwSm" type="github">
  <diagram name="Sayfa -1" id="Tvfe4m57zR8USqGM2BtF">
    <mxGraphModel>
      <root>
        <mxCell id="0" />
        <mxCell id="1" parent="0" />
      </root>
    </mxGraphModel>
  </diagram>
</mxfile>
